<svg xmlns="http://www.w3.org/2000/svg" width="64" height="64" fill="currentColor" class="bi bi-clock" viewBox="0 0 64 64">
  <g transform="matrix(3.5,0,0,3.5,4,4)">
        <path d="M8,3.5C8,3.226 7.774,3 7.5,3C7.226,3 7,3.226 7,3.5L7,9C7,9.179 7.096,9.345 7.252,9.434L10.752,11.434C10.825,11.473 10.907,11.494 10.99,11.494C11.264,11.494 11.49,11.268 11.49,10.994C11.49,10.819 11.398,10.656 11.248,10.566L8,8.71L8,3.5Z" style="fill-rule:nonzero;"/>
    </g>
    <g transform="matrix(3.5,0,0,3.5,4,4)">
        <path d="M8,16C12.389,16 16,12.389 16,8C16,3.611 12.389,0 8,0C3.611,0 -0,3.611 0,8C0,12.389 3.611,16 8,16M15,8C15,11.84 11.84,15 8,15C4.16,15 1,11.84 1,8C1,4.16 4.16,1 8,1C11.84,1 15,4.16 15,8" style="fill-rule:nonzero;"/>
    </g>
</svg>